<svg xmlns="http://www.w3.org/2000/svg" viewBox="0 0 503.44 629.3" x="0px" y="0px"><title>Asset 11Planet</title><g data-name="Layer 2"><g data-name="Layer 1"><path d="M445.68,402.44H57.76a5,5,0,1,1,0-10H445.68a5,5,0,0,1,0,10Z"/><path d="M492,237H104.11a5,5,0,1,1,0-10H492a5,5,0,0,1,0,10Z"/><path d="M233,375H45.69a10,10,0,1,1,0-20H233a10,10,0,0,1,0,20Z"/><path d="M445.68,146.87H57.76a5,5,0,0,1,0-10H445.68a5,5,0,0,1,0,10Z"/><path d="M259.43,119.39H72.08a10,10,0,0,1,0-20H259.43a10,10,0,0,1,0,20Z"/><path d="M488.43,274H24.18a10,10,0,1,1,0-20H488.43a10,10,0,0,1,0,20Z"/><path d="M251.72,503.44a251.72,251.72,0,0,1-178-429.71,251.72,251.72,0,1,1,356,356A250.07,250.07,0,0,1,251.72,503.44Zm0-473.44A221.72,221.72,0,0,0,94.94,408.5,221.72,221.72,0,0,0,408.5,94.94,220.27,220.27,0,0,0,251.72,30Z"/></g></g><text x="0" y="518.44" fill="#000000" font-size="5px" font-weight="bold" font-family="'Helvetica Neue', Helvetica, Arial-Unicode, Arial, Sans-serif">Created by Bryan Sellers</text><text x="0" y="523.44" fill="#000000" font-size="5px" font-weight="bold" font-family="'Helvetica Neue', Helvetica, Arial-Unicode, Arial, Sans-serif">from the Noun Project</text></svg>